<?xml version="1.0" encoding="UTF-8"?>
<svg width="32" height="32" viewBox="0 0 32 32" xmlns="http://www.w3.org/2000/svg">
  <g transform="matrix(0.02067057, 0, 0, 0.02067057, 3.7372413, 3.7372412)" fill-rule="evenodd" clip-rule="evenodd">
    <circle cx="600" cy="600" r="768" fill="#ffffff"/>
    <path d="m 600,-168 a 768,768 0 0 0 -768,767.99997 768,768 0 0 0 528.8701,729.82323 l 2.4873,-42.1318 0.8232,-48.1758 -4.122,-61.4443 -12.2813,-44.4639 -18.8584,-34.0781 -17.5254,-29.4375 -9.4511,-30.416 -2.6514,-32.3233 -1.2041,-27.95213 3.0967,-25.3389 8.7158,-32.874 15.1406,-30.2461 22.3799,-30.8379 26.6602,-37.415 -3.3018,-44.9151 -24.2813,-9.2402 -16.0488,-8.6748 -13.2803,-9.835 -13.1953,-13.2246 -12.375,-26.5283 -20.622,-78.1992 -14.0215,-88.67577 v -68.4228 l -8.2471,-20.2442 5.7773,-26.5342 5.7715,-20.9443 8.2442,-8.3789 8.2529,-21.6475 13.1982,-16.7549 24.7413,-24.4365 9.0761,-14.6631 0.8262,-9.7734 19.793,-28.623 -4.1221,-16.76079 v -11.8711 l 7.4209,-13.96582 9.8936,-9.07324 5.7773,-26.53418 9.8994,-39.79394 4.9483,-12.56836 -1.6465,-37.00782 5.7715,-55.854493 7.4238,-21.64453 2.4756,-11.17383 16.4912,-23.73339 19.7988,-23.74219 27.2197,-6.28711 20.6133,-9.77051 18.1494,-7.68164 35.4727,-6.98437 19.793,-2.0918 14.0214,0.69726 28.043,1.39454 14.0244,2.09472 10.7197,5.58985 10.7256,3.48632 23.9209,4.88965 20.6192,12.56543 10.7226,16.06348 7.4239,19.5498 4.122,18.84961 1.6465,34.20996 1.6553,26.534183 v 16.06055 14.65723 l 0.8203,25.83984 -3.2959,14.66016 -2.4727,23.03906 -12.3779,25.13672 -11.5488,13.26855 -9.0733,15.35449 -17.3144,10.47364 -19.7988,5.58691 v 17.45508 l 19.7988,8.38188 19.793,15.3574 35.4697,36.3047 27.2168,32.8213 15.6738,25.831 0.8174,23.7393 17.3262,25.831 18.1494,24.4424 4.9424,15.3574 -1.6524,11.8682 -6.5918,30.0263 -5.7685,15.3604 18.1406,0.6943 11.5517,7.6817 14.8418,16.7578 6.5977,11.8711 19.7959,14.6601 14.0215,2.792 3.3017,13.96587 4.9454,16.0605 7.4267,16.7549 4.125,30.0234 -10.7226,28.6289 -8.25,26.5284 -20.6192,9.0791 19.793,105.4218 18.1494,2.0977 15.6709,7.6846 19.793,22.3418 8.25,20.2441 30.5156,63.542 -34.6377,33.50973 -23.0977,30.7207 -52.7871,48.876 -23.9179,20.2471 32.165,106.1279 18.9727,69.1231 15.0087,51.8291 A 768,768 0 0 0 1368,599.99997 768,768 0 0 0 600,-168 Z m 180.5478,843.63567 -2.3379,3.9493 -7.5791,6.4189 -15.167,5.4258 -5.2441,5.4346 -1.749,17.2793 v 14.8154 l 2.8623,15.7969 3.8818,19.1396 5.4317,21.5654 5.8535,20.6485 5.1123,16.8017 5.9472,27.1641 6.0674,27.9814 3.334,20.7364 4.0811,2.4697 14.5781,-15.8027 5.833,-7.4034 2.3379,-7.4033 5.8301,-8.3935 1.1689,-7.4063 6.4131,-4.9365 6.999,-5.4287 -5.8301,-36.5362 -12.2519,-69.1201 -5.2471,-3.9492 -18.0791,-8.3965 -5.833,-4.9365 -2.335,-4.9365 1.1661,-5.4287 1.1689,-5.9297 -3.501,-10.3623 -5.25,-10.3682 z" fill="#d0011b"/>
  </g>
</svg>