<?xml version="1.0" encoding="UTF-8"?>
<svg width="192" height="192" viewBox="0 0 32 32" xmlns="http://www.w3.org/2000/svg">
  <g transform="matrix(0.02101508,0,0,0.02101508,-14.02529,58.316817)" fill-rule="evenodd" clip-rule="evenodd">
    <path d="m 2171.6957,-2397.5903 c -23.5047,-92.0903 -93.3067,-288.7154 -342.5995,-342.7607 -186.2573,-40.5339 -312.3283,-33.4227 -366.4604,-34.4894 -8.1911,0 -63.7477,-0.3555 -80.1299,0 -72.6509,1.0667 -180.203,1.0667 -340.1065,35.5561 -249.6489,54.4009 -319.4509,250.3149 -342.9557,342.4051 -32.0519,125.513 -32.0519,390.0502 -32.0519,390.0502 0,0 0,264.5373 32.0519,390.0503 23.5048,92.0901 93.3068,288.0041 342.5996,342.0493 159.9035,34.4896 274.9343,35.5562 340.1065,35.5562 16.3821,0 72.2949,0 80.1299,0 50.927,-0.3556 180.2031,6.0445 366.4605,-34.4894 249.2927,-54.0453 319.0947,-250.6704 342.5995,-342.7605 32.0519,-125.8686 32.0519,-390.7614 32.0519,-390.7614 0,0 0.356,-264.5373 -31.6959,-390.4058 z" fill="#ffffff"/>
    <path d="m 1382.5079,-2769.668 c -72.6509,1.0667 -180.2039,1.0653 -340.1074,35.5547 -249.64892,54.4009 -319.45032,250.3141 -342.95512,342.4043 -32.0519,125.513 -32.0537,390.0528 -32.0537,390.0528 0,0 0,264.5368 32.0537,390.0498 23.5048,92.0901 93.3049,288.0045 342.59772,342.0497 56.2053,12.1229 106.8656,20.1166 151.7666,25.3857 l 2.4697,-41.792 0.8526,-49.8867 -4.2686,-63.6269 -12.7178,-46.043 -19.5293,-35.2881 -18.1464,-30.4834 -9.7881,-31.4971 -2.7452,-33.4716 -1.248,-28.9454 3.208,-26.2381 9.0264,-34.043 15.6767,-31.3213 23.1768,-31.9336 27.6064,-38.7422 -3.4189,-46.5117 -25.1455,-9.5683 -16.6172,-8.9825 -13.752,-10.1836 -13.664,-13.6962 -12.8145,-27.4688 -21.3545,-80.9795 -14.5195,-91.8252 v -70.8515 l -8.54,-20.9649 5.9824,-27.4775 5.9766,-21.6885 8.5371,-8.6748 8.5459,-22.418 13.667,-17.3496 25.6201,-25.3037 9.3984,-15.1846 0.8555,-10.1221 20.4961,-29.6396 -4.2686,-17.3555 v -12.293 l 7.6846,-14.4609 10.2451,-9.3955 5.9824,-27.4775 10.251,-41.2061 5.124,-13.0166 -1.7051,-38.3232 5.9766,-57.8379 7.6875,-22.4121 2.5635,-11.5723 17.0771,-24.5742 20.502,-24.586 28.1865,-6.5127 21.3457,-10.1162 18.794,-7.9541 36.7324,-7.2334 20.4961,-2.165 14.5195,0.7207 29.0391,1.4443 14.5224,2.1709 11.1006,5.7862 11.1065,3.6123 24.7705,5.0625 21.3515,13.0107 11.1035,16.6348 7.6875,20.2441 4.2686,19.5205 1.7051,35.4229 1.7138,27.4775 v 16.6319 15.1787 l 0.8497,26.7568 -3.4131,15.1816 -2.5606,23.8565 -12.8174,26.0303 -11.9589,13.7402 -9.3956,15.8994 -17.9296,10.8457 -20.502,5.7861 v 18.0733 l 20.502,8.6807 20.4961,15.9023 36.7294,37.5938 28.1836,33.9873 16.2305,26.751 0.8467,24.58 17.9414,26.751 18.7969,25.3096 5.1152,15.9023 -1.7109,12.2901 -6.8262,31.0927 -5.9707,15.9053 18.7851,0.7207 11.962,7.9541 15.3691,17.3525 6.832,12.293 20.4991,15.1817 14.5195,2.8916 3.4189,14.4609 5.1211,16.6318 7.6905,17.3496 4.2714,31.0899 -11.1035,29.6455 -8.5429,27.4717 -21.3516,9.4013 20.4961,109.166 18.7939,2.1739 16.2276,7.957 20.4961,23.1358 8.5429,20.9619 31.5996,65.8007 -35.8681,34.6992 -23.918,31.8135 -54.6621,50.6103 -24.7676,20.9678 33.3076,109.8984 19.6465,71.5781 17.2676,59.6426 c 30.9715,-4.669 64.1202,-10.6513 99.3018,-18.3076 249.2927,-54.0453 319.0957,-250.6715 342.6005,-342.7616 32.0519,-125.8686 32.0508,-390.7617 32.0508,-390.7617 0,0 0.3556,-264.5358 -31.6963,-390.4044 -23.5047,-92.0902 -93.3048,-288.7164 -342.5976,-342.7617 -186.2573,-40.5339 -312.3279,-33.4216 -366.46,-34.4883 -8.1911,0 -63.7477,-0.3555 -80.1299,0 z m 245.7803,849.9083 -2.4199,4.0898 -7.8486,6.6445 -15.7061,5.6192 -5.4287,5.6279 -1.8106,17.8945 v 15.3399 l 2.962,16.3594 4.0195,19.8193 5.625,22.3301 6.0615,21.3838 5.294,17.3965 6.1582,28.1308 6.2841,28.9746 3.4512,21.4746 4.2275,2.5547 15.0938,-16.3623 6.041,-7.667 2.4229,-7.667 6.0351,-8.6894 1.21,-7.6699 6.6416,-5.1124 7.248,-5.622 -6.0381,-37.834 -12.6855,-71.5752 -5.4346,-4.0898 -18.7207,-8.6954 -6.041,-5.1123 -2.417,-5.1093 1.207,-5.6221 1.21,-6.1406 -3.624,-10.7315 -5.4375,-10.7373 z" fill="#000000"/>
  </g>
</svg>
