<?xml version="1.0" encoding="UTF-8"?>
<svg width="192" height="192" viewBox="0 0 32 32" xmlns="http://www.w3.org/2000/svg">
<g transform="matrix(0.66666667,0,0,0.66666667,158.28077,200)" fill-rule="evenodd" clip-rule="evenodd">
<g><circle fill="#ffffff" cx="-213.42105" cy="-276" r="24" />
<g transform="translate(46.764396,-141.54485)" fill-rule="evenodd" clip-rule="evenodd">
<path d="m -254.54297,-132.09375 -0.0732,0.12598 -0.2373,0.19922 -0.47168,0.16992 -0.16407,0.16992 -0.0557,0.53906 v 0.46289 l 0.0879,0.49512 0.12305,0.59766 0.16992,0.67382 0.18164,0.64454 0.16113,0.52441 0.18457,0.84961 0.19043,0.87598 0.10547,0.64746 0.12598,0.0762 0.45703,-0.49219 0.18164,-0.23144 0.0732,-0.23145 0.18164,-0.26367 0.0352,-0.23145 0.20215,-0.15527 0.21679,-0.16699 -0.18164,-1.14258 -0.38086,-2.15918 -0.16406,-0.12598 -0.56543,-0.26074 -0.18164,-0.15527 -0.0732,-0.15235 0.0352,-0.16992 0.0351,-0.1875 -0.1084,-0.32226 -0.16406,-0.3252 z" fill="#000"/>
<path d="m -260.18555,-158.45508 a 24,24 0 0 0 -24,24 24,24 0 0 0 7.91309,17.80664 24,24 0 0 0 2.62793,2.0625 24,24 0 0 0 5.98828,2.93555 l 0.0762,-1.31543 0.0264,-1.50586 -0.12891,-1.91894 -0.38378,-1.38868 -0.58887,-1.0664 -0.54785,-0.91992 -0.2959,-0.94922 -0.082,-1.01075 -0.0381,-0.87304 0.0967,-0.79395 0.27246,-1.02539 0.47168,-0.94629 0.7002,-0.96386 0.83203,-1.16895 -0.10254,-1.40332 -0.75879,-0.29004 -0.50098,-0.26953 -0.41601,-0.30762 -0.41016,-0.41308 -0.38672,-0.8291 -0.64453,-2.44336 -0.43945,-2.77149 v -2.13867 l -0.25781,-0.63281 0.18164,-0.8291 0.17871,-0.65332 0.25781,-0.26368 0.25781,-0.67675 0.41309,-0.52149 0.77344,-0.76465 0.28418,-0.45703 0.0264,-0.30762 0.61817,-0.89355 -0.12891,-0.52441 v -0.36915 l 0.23145,-0.43652 0.30761,-0.28418 0.18164,-0.8291 0.31055,-1.24512 0.15234,-0.39258 -0.0498,-1.15429 0.17871,-1.7461 0.23438,-0.67675 0.0762,-0.34864 0.51562,-0.74121 0.61817,-0.74414 0.85254,-0.19629 0.6416,-0.30468 0.56836,-0.24024 1.10742,-0.2168 0.61816,-0.0674 0.43946,0.0234 0.87597,0.0439 0.43945,0.0645 0.33399,0.17578 0.33691,0.1084 0.74707,0.15234 0.64453,0.39258 0.33399,0.50098 0.23144,0.6123 0.12891,0.58887 0.0527,1.06933 0.0498,0.8291 v 0.50098 0.45996 l 0.0264,0.80567 -0.10254,0.45996 -0.0762,0.71777 -0.38672,0.78516 -0.36328,0.41601 -0.28125,0.48047 -0.542,0.3252 -0.61816,0.17578 v 0.54492 l 0.61816,0.26367 0.61817,0.47754 1.10742,1.13672 0.85254,1.02539 0.48926,0.80566 0.0264,0.74414 0.53907,0.80567 0.56836,0.76465 0.15527,0.48047 -0.0527,0.36914 -0.20507,0.9375 -0.18164,0.48047 0.56836,0.0234 0.36035,0.24024 0.46289,0.52148 0.20801,0.37207 0.61816,0.45703 0.43652,0.0879 0.10547,0.43653 0.15235,0.50097 0.23437,0.52442 0.12891,0.9375 -0.33692,0.89648 -0.25781,0.8291 -0.64453,0.28418 0.61816,3.29297 0.56836,0.0674 0.48926,0.2373 0.61816,0.7002 0.25782,0.63281 0.95507,1.98633 -1.08398,1.04589 -0.7207,0.96094 -1.64942,1.52637 -0.74707,0.63281 1.00489,3.31641 0.59179,2.15918 0.46875,1.62011 a 24,24 0 0 0 5.60449,-3.07617 24,24 0 0 0 2.44629,-2.07129 24,24 0 0 0 7.30664,-17.24121 24,24 0 0 0 -24,-24 z" fill="#000"/></g></g></g></svg>